<svg width="544" height="155" viewBox="0 0 544 155" fill="none" xmlns="http://www.w3.org/2000/svg">
<rect width="544" height="155" rx="10" fill="url(#paint0_radial_1482_38)"/>
<path d="M243.7 58.025H237.5V74H235.475V58.025H229.25V56H243.7V58.025ZM247.978 58.025V63.975H255.628V66.025H247.978V71.975H257.128V74H245.953V56H257.128V58.025H247.978ZM275.1 74H273.075V58.025H262.65V74H260.625V56H275.1V74ZM281.119 58.025V63.975H288.769V66.025H281.119V71.975H290.269V74H279.094V56H290.269V58.025H281.119ZM305.516 57.875C305.982 58.375 306.341 58.95 306.591 59.6C306.857 60.25 306.999 60.925 307.016 61.625C307.016 62.2583 306.899 62.8917 306.666 63.525C306.432 64.1417 306.107 64.7 305.691 65.2C305.174 65.8333 304.524 66.3333 303.741 66.7C302.974 67.0667 302.174 67.25 301.341 67.25H295.791V74H293.766V56H301.341C301.957 56 302.591 56.1083 303.241 56.325C304.141 56.625 304.899 57.1417 305.516 57.875ZM304.091 63.95C304.641 63.2667 304.916 62.525 304.916 61.725C304.916 61.2083 304.824 60.725 304.641 60.275C304.474 59.825 304.216 59.425 303.866 59.075C303.549 58.7417 303.166 58.475 302.716 58.275C302.266 58.0583 301.807 57.95 301.341 57.95H295.791V65.3H301.341C301.841 65.3 302.341 65.1833 302.841 64.95C303.341 64.7 303.757 64.3667 304.091 63.95ZM329.85 74H327.825V58.025H317.4V74H315.375V56H329.85V74ZM345.594 57.875C346.06 58.375 346.419 58.95 346.669 59.6C346.935 60.25 347.077 60.925 347.094 61.625C347.094 62.2583 346.977 62.8917 346.744 63.525C346.51 64.1417 346.185 64.7 345.769 65.2C345.252 65.8333 344.602 66.3333 343.819 66.7C343.052 67.0667 342.252 67.25 341.419 67.25H335.869V74H333.844V56H341.419C342.035 56 342.669 56.1083 343.319 56.325C344.219 56.625 344.977 57.1417 345.594 57.875ZM344.169 63.95C344.719 63.2667 344.994 62.525 344.994 61.725C344.994 61.2083 344.902 60.725 344.719 60.275C344.552 59.825 344.294 59.425 343.944 59.075C343.627 58.7417 343.244 58.475 342.794 58.275C342.344 58.0583 341.885 57.95 341.419 57.95H335.869V65.3H341.419C341.919 65.3 342.419 65.1833 342.919 64.95C343.419 64.7 343.835 64.3667 344.169 63.95ZM363.175 56V74H361.125V59.75L351.7 74H349.875V56H351.925V70.25L361.375 56H363.175ZM377.522 51.175C377.522 51.775 377.372 52.3333 377.072 52.85C376.772 53.35 376.364 53.75 375.847 54.05C375.347 54.35 374.797 54.5 374.197 54.5C373.597 54.5 373.039 54.35 372.522 54.05C372.022 53.75 371.622 53.35 371.322 52.85C371.039 52.3333 370.897 51.775 370.897 51.175H372.547C372.547 51.6417 372.705 52.0333 373.022 52.35C373.355 52.6667 373.747 52.825 374.197 52.825C374.664 52.825 375.055 52.6667 375.372 52.35C375.705 52.0333 375.872 51.6417 375.872 51.175H377.522ZM380.472 56V74H378.422V59.75L368.997 74H367.172V56H369.222V70.25L378.672 56H380.472ZM403.294 56V74H384.469V56H386.494V71.975H392.869V56H394.894V71.975H401.269V56H403.294ZM421.222 74H419.197V57.95H411.897L410.697 68.1C410.464 70.0667 409.989 71.5667 409.272 72.6C408.572 73.6333 407.414 74.1 405.797 74V72.125C406.497 72.125 407.047 71.9583 407.447 71.625C407.864 71.275 408.164 70.7917 408.347 70.175C408.547 69.5583 408.705 68.7417 408.822 67.725L410.222 56H421.222V74ZM435.052 70.55H426.652L425.477 74H423.352L429.477 56H432.227L438.352 74H436.227L435.052 70.55ZM434.377 68.625L430.827 58.225L427.302 68.625H434.377ZM243.7 93.025H237.5V109H235.475V93.025H229.25V91H243.7V93.025ZM257.728 100.775C258.061 101.192 258.311 101.658 258.478 102.175C258.661 102.692 258.753 103.208 258.753 103.725C258.753 104.342 258.653 104.933 258.453 105.5C258.27 106.067 257.995 106.575 257.628 107.025C256.911 107.858 256.011 108.433 254.928 108.75C254.328 108.917 253.52 109 252.503 109H245.953V91H252.178C252.695 91 253.12 91.0167 253.453 91.05C253.803 91.0667 254.103 91.1167 254.353 91.2C255.353 91.4667 256.17 91.9917 256.803 92.775C257.153 93.1917 257.42 93.6667 257.603 94.2C257.803 94.7167 257.903 95.25 257.903 95.8C257.903 96.2833 257.811 96.7583 257.628 97.225C257.461 97.6917 257.228 98.1167 256.928 98.5C256.661 98.8667 256.411 99.1417 256.178 99.325C256.811 99.7083 257.328 100.192 257.728 100.775ZM248.003 92.925V98.6H252.903C253.32 98.6 253.745 98.4917 254.178 98.275C254.628 98.0417 254.978 97.7417 255.228 97.375C255.611 96.8583 255.803 96.275 255.803 95.625C255.803 95.275 255.736 94.95 255.603 94.65C255.47 94.3333 255.286 94.0583 255.053 93.825C254.753 93.4917 254.428 93.2583 254.078 93.125C253.745 92.9917 253.353 92.925 252.903 92.925H248.003ZM255.778 106.05C256.345 105.483 256.645 104.775 256.678 103.925C256.678 103.125 256.436 102.417 255.953 101.8C255.67 101.4 255.286 101.092 254.803 100.875C254.32 100.642 253.836 100.525 253.353 100.525H248.003V107.05H252.478C253.361 107.05 254.028 107 254.478 106.9C254.945 106.783 255.378 106.5 255.778 106.05ZM268.959 109.375C267.643 109.375 266.426 109.133 265.309 108.65C264.209 108.15 263.301 107.425 262.584 106.475C261.268 104.808 260.609 102.6 260.609 99.85C260.609 97.2833 261.268 95.1667 262.584 93.5C263.301 92.5833 264.201 91.8833 265.284 91.4C266.368 90.9 267.534 90.65 268.784 90.65C270.118 90.65 271.351 90.8917 272.484 91.375C273.634 91.8417 274.584 92.55 275.334 93.5C276.018 94.3833 276.509 95.3667 276.809 96.45C277.109 97.5333 277.276 98.7167 277.309 100C277.276 102.667 276.618 104.825 275.334 106.475C274.601 107.425 273.676 108.15 272.559 108.65C271.459 109.133 270.259 109.375 268.959 109.375ZM268.859 107.425C269.843 107.425 270.759 107.242 271.609 106.875C272.476 106.508 273.168 105.967 273.684 105.25C274.651 103.983 275.134 102.175 275.134 99.825C275.134 97.675 274.651 95.9917 273.684 94.775C273.184 94.075 272.518 93.5333 271.684 93.15C270.868 92.7667 269.993 92.575 269.059 92.575C268.076 92.575 267.151 92.7667 266.284 93.15C265.434 93.5167 264.743 94.0583 264.209 94.775C263.276 95.9583 262.793 97.7 262.759 100C262.759 102.25 263.243 104 264.209 105.25C264.726 105.95 265.401 106.492 266.234 106.875C267.068 107.242 267.943 107.425 268.859 107.425ZM291.838 109H289.788V102.25H284.238H284.188L280.913 109H278.588L282.088 101.825C281.171 101.425 280.446 100.883 279.913 100.2C279.496 99.7167 279.171 99.175 278.938 98.575C278.704 97.9583 278.588 97.3417 278.588 96.725C278.588 96.0083 278.713 95.3167 278.963 94.65C279.229 93.9667 279.604 93.375 280.088 92.875C280.671 92.1583 281.429 91.6417 282.363 91.325C283.013 91.1083 283.638 91 284.238 91H291.838V109ZM289.788 92.95H284.263C283.813 92.95 283.354 93.05 282.888 93.25C282.438 93.45 282.046 93.725 281.713 94.075C281.379 94.425 281.121 94.8333 280.938 95.3C280.771 95.75 280.688 96.225 280.688 96.725C280.688 97.525 280.963 98.2667 281.513 98.95C281.846 99.3667 282.263 99.7 282.763 99.95C283.263 100.183 283.763 100.3 284.263 100.3H289.788V92.95ZM313.706 91V109H311.656V100.7C311.106 101.45 310.406 102.025 309.556 102.425C308.723 102.808 307.806 103 306.806 103C305.823 103 304.898 102.808 304.031 102.425C303.165 102.025 302.448 101.467 301.881 100.75C301.298 100.017 300.906 99.1917 300.706 98.275C300.506 97.3417 300.406 96.2333 300.406 94.95V91H302.456V94.625C302.456 95.8083 302.531 96.7833 302.681 97.55C302.831 98.3 303.148 98.9583 303.631 99.525C304.031 100.042 304.523 100.425 305.106 100.675C305.706 100.908 306.348 101.025 307.031 101.025C307.781 101.025 308.456 100.892 309.056 100.625C309.673 100.342 310.181 99.9417 310.581 99.425C311.048 98.775 311.365 97.9667 311.531 97C311.615 96.55 311.656 96.0417 311.656 95.475V91H313.706ZM319.72 93.025V98.975H327.37V101.025H319.72V106.975H328.87V109H317.695V91H328.87V93.025H319.72ZM344.117 92.875C344.584 93.375 344.942 93.95 345.192 94.6C345.459 95.25 345.601 95.925 345.617 96.625C345.617 97.2583 345.501 97.8917 345.267 98.525C345.034 99.1417 344.709 99.7 344.292 100.2C343.776 100.833 343.126 101.333 342.342 101.7C341.576 102.067 340.776 102.25 339.942 102.25H334.392V109H332.367V91H339.942C340.559 91 341.192 91.1083 341.842 91.325C342.742 91.625 343.501 92.1417 344.117 92.875ZM342.692 98.95C343.242 98.2667 343.517 97.525 343.517 96.725C343.517 96.2083 343.426 95.725 343.242 95.275C343.076 94.825 342.817 94.425 342.467 94.075C342.151 93.7417 341.767 93.475 341.317 93.275C340.867 93.0583 340.409 92.95 339.942 92.95H334.392V100.3H339.942C340.442 100.3 340.942 100.183 341.442 99.95C341.942 99.7 342.359 99.3667 342.692 98.95ZM359.723 93.025H350.423V109H348.398V91H359.723V93.025ZM371.302 105.55H362.902L361.727 109H359.602L365.727 91H368.477L374.602 109H372.477L371.302 105.55ZM370.627 103.625L367.077 93.225L363.552 103.625H370.627Z" fill="white"/>
<rect x="96" y="41.8254" width="33.2143" height="77.5" rx="4" fill="url(#paint1_linear_1482_38)"/>
<rect x="134.135" y="41.8254" width="33.2143" height="77.5" rx="4" fill="url(#paint2_linear_1482_38)"/>
<rect x="172.27" y="41.8254" width="33.2143" height="77.5" rx="4" fill="url(#paint3_linear_1482_38)"/>
<mask id="mask0_1482_38" style="mask-type:alpha" maskUnits="userSpaceOnUse" x="96" y="41" width="34" height="79">
<rect x="96" y="41.8254" width="33.2143" height="77.5" rx="4" fill="white"/>
</mask>
<g mask="url(#mask0_1482_38)">
<path d="M94.1548 81.1905C97.6402 80.7804 105.226 78.7304 110.147 83.651C113.837 87.3415 113.837 91.0318 119.988 91.0318C124.909 91.0318 129.009 93.9021 130.444 95.3373C131.88 96.9775 135.98 100.012 140.901 99.0278C147.052 97.7976 147.667 93.4919 150.742 88.5714C153.817 83.651 155.663 80.5754 159.968 79.9603C164.274 79.3453 172.885 83.6508 177.191 73.1945C181.496 62.7381 181.496 55.3572 190.107 54.7421C198.718 54.127 205.484 57.8175 207.329 50.4365" stroke="#1B1F23" stroke-width="3"/>
</g>
<mask id="mask1_1482_38" style="mask-type:alpha" maskUnits="userSpaceOnUse" x="172" y="41" width="34" height="79">
<rect x="172.27" y="41.8254" width="33.2143" height="77.5" rx="4" fill="white"/>
</mask>
<g mask="url(#mask1_1482_38)">
<path d="M94.1548 81.1905C97.6402 80.7804 105.226 78.7304 110.147 83.651C113.837 87.3415 113.837 91.0318 119.988 91.0318C124.909 91.0318 129.009 93.9021 130.444 95.3373C131.88 96.9775 135.98 100.012 140.901 99.0278C147.052 97.7976 147.667 93.4919 150.742 88.5714C153.817 83.651 155.663 80.5754 159.968 79.9603C164.274 79.3453 172.885 83.6508 177.191 73.1945C181.496 62.7381 181.496 55.3572 190.107 54.7421C198.718 54.127 205.484 57.8175 207.329 50.4365" stroke="#1B1F23" stroke-width="3"/>
</g>
<mask id="mask2_1482_38" style="mask-type:alpha" maskUnits="userSpaceOnUse" x="134" y="41" width="34" height="79">
<rect x="134.135" y="41.8254" width="33.2143" height="77.5" rx="4" fill="white"/>
</mask>
<g mask="url(#mask2_1482_38)">
<path d="M94.1547 81.1905C97.6401 80.7804 105.226 78.7304 110.147 83.651C113.837 87.3415 113.837 91.0318 119.988 91.0318C124.909 91.0318 129.009 93.9021 130.444 95.3373C131.88 96.9775 135.98 100.012 140.901 99.0278C147.051 97.7976 147.667 93.4919 150.742 88.5714C153.817 83.651 155.663 80.5754 159.968 79.9603C164.274 79.3453 172.885 83.6508 177.19 73.1945C181.496 62.7381 181.496 55.3572 190.107 54.7421C198.718 54.127 205.484 57.8175 207.329 50.4365" stroke="#1B1F23" stroke-width="3"/>
</g>
<path d="M59.1225 77.8437H53.8725L53.1381 80H51.81L55.6381 68.75H57.3568L61.185 80H59.8568L59.1225 77.8437ZM58.7006 76.6406L56.4818 70.1406L54.2787 76.6406H58.7006Z" fill="white"/>
<circle cx="56.5" cy="74.5" r="15.5" stroke="url(#paint4_linear_1482_38)" stroke-width="2"/>
<path d="M491.193 74.2344C491.454 74.5573 491.657 74.9115 491.803 75.2969C491.948 75.6823 492.021 76.0781 492.021 76.4844C492.011 76.9115 491.922 77.3333 491.756 77.75C491.6 78.1562 491.376 78.5156 491.084 78.8281C490.698 79.2865 490.225 79.6094 489.662 79.7969C489.256 79.9323 488.86 80 488.475 80H483.74V68.75H490.912V70.0156H485.006V72.9687H488.475C488.995 72.9687 489.495 73.0833 489.975 73.3125C490.464 73.5417 490.87 73.849 491.193 74.2344ZM490.709 76.4219C490.709 75.9219 490.537 75.4583 490.193 75.0312C489.985 74.7708 489.725 74.5625 489.412 74.4062C489.1 74.25 488.787 74.1719 488.475 74.1719H485.006V78.7812H488.475C488.766 78.7812 489.053 78.7187 489.334 78.5937C489.615 78.4583 489.855 78.2865 490.053 78.0781C490.271 77.8594 490.433 77.6094 490.537 77.3281C490.652 77.0365 490.709 76.7344 490.709 76.4219Z" fill="white"/>
<circle cx="487.5" cy="74.5" r="15.5" stroke="url(#paint5_linear_1482_38)" stroke-width="2"/>
<defs>
<radialGradient id="paint0_radial_1482_38" cx="0" cy="0" r="1" gradientUnits="userSpaceOnUse" gradientTransform="translate(152.447 31.9042) rotate(45.8364) scale(171.597 322.105)">
<stop stop-color="#1D242C"/>
<stop offset="1" stop-color="#1B1D20"/>
</radialGradient>
<linearGradient id="paint1_linear_1482_38" x1="103.277" y1="121.786" x2="153.063" y2="56.8812" gradientUnits="userSpaceOnUse">
<stop stop-color="white"/>
<stop offset="1" stop-color="#7B7B7B"/>
</linearGradient>
<linearGradient id="paint2_linear_1482_38" x1="141.412" y1="121.786" x2="191.198" y2="56.8812" gradientUnits="userSpaceOnUse">
<stop stop-color="white"/>
<stop offset="1" stop-color="#7B7B7B"/>
</linearGradient>
<linearGradient id="paint3_linear_1482_38" x1="179.547" y1="121.786" x2="229.333" y2="56.8812" gradientUnits="userSpaceOnUse">
<stop stop-color="white"/>
<stop offset="1" stop-color="#7B7B7B"/>
</linearGradient>
<linearGradient id="paint4_linear_1482_38" x1="42.0625" y1="86.875" x2="73" y2="66.25" gradientUnits="userSpaceOnUse">
<stop stop-color="white"/>
<stop offset="1" stop-color="#616161"/>
</linearGradient>
<linearGradient id="paint5_linear_1482_38" x1="473.062" y1="86.875" x2="504" y2="66.25" gradientUnits="userSpaceOnUse">
<stop stop-color="white"/>
<stop offset="1" stop-color="#616161"/>
</linearGradient>
</defs>
</svg>
