<svg width="15" height="15" viewBox="0 0 15 15" fill="none" xmlns="http://www.w3.org/2000/svg">
<path d="M6.73702 0.900543C7.13644 0.42911 7.86356 0.42911 8.26298 0.900542L8.86173 1.60725C9.10666 1.89634 9.49393 2.02217 9.86201 1.93226L10.7618 1.71246C11.362 1.56583 11.9503 1.99322 11.9963 2.60939L12.0653 3.53307C12.0936 3.91091 12.3329 4.24035 12.6835 4.38396L13.5407 4.73502C14.1125 4.96921 14.3372 5.66074 14.0122 6.18629L13.5251 6.97412C13.3259 7.2964 13.3259 7.7036 13.5251 8.02588L14.0122 8.81371C14.3372 9.33926 14.1125 10.0308 13.5407 10.265L12.6835 10.616C12.3329 10.7596 12.0936 11.0891 12.0653 11.4669L11.9963 12.3906C11.9503 13.0068 11.362 13.4342 10.7618 13.2875L9.86201 13.0677C9.49393 12.9778 9.10666 13.1037 8.86173 13.3927L8.26298 14.0995C7.86356 14.5709 7.13644 14.5709 6.73702 14.0995L6.13827 13.3927C5.89334 13.1037 5.50606 12.9778 5.13799 13.0677L4.2382 13.2875C3.63796 13.4342 3.04971 13.0068 3.00367 12.3906L2.93467 11.4669C2.90644 11.0891 2.66709 10.7596 2.31646 10.616L1.45932 10.265C0.887531 10.0308 0.662838 9.33926 0.98777 8.81371L1.47486 8.02588C1.67412 7.7036 1.67412 7.2964 1.47486 6.97412L0.98777 6.18629C0.662838 5.66074 0.88753 4.96921 1.45932 4.73502L2.31646 4.38396C2.66709 4.24035 2.90644 3.91091 2.93467 3.53307L3.00367 2.60939C3.04971 1.99323 3.63796 1.56583 4.2382 1.71246L5.13799 1.93226C5.50606 2.02217 5.89334 1.89634 6.13827 1.60725L6.73702 0.900543Z" fill="url(#paint0_radial_1507_652)"/>
<path d="M6.73702 0.900543C7.13644 0.42911 7.86356 0.42911 8.26298 0.900542L8.86173 1.60725C9.10666 1.89634 9.49393 2.02217 9.86201 1.93226L10.7618 1.71246C11.362 1.56583 11.9503 1.99322 11.9963 2.60939L12.0653 3.53307C12.0936 3.91091 12.3329 4.24035 12.6835 4.38396L13.5407 4.73502C14.1125 4.96921 14.3372 5.66074 14.0122 6.18629L13.5251 6.97412C13.3259 7.2964 13.3259 7.7036 13.5251 8.02588L14.0122 8.81371C14.3372 9.33926 14.1125 10.0308 13.5407 10.265L12.6835 10.616C12.3329 10.7596 12.0936 11.0891 12.0653 11.4669L11.9963 12.3906C11.9503 13.0068 11.362 13.4342 10.7618 13.2875L9.86201 13.0677C9.49393 12.9778 9.10666 13.1037 8.86173 13.3927L8.26298 14.0995C7.86356 14.5709 7.13644 14.5709 6.73702 14.0995L6.13827 13.3927C5.89334 13.1037 5.50606 12.9778 5.13799 13.0677L4.2382 13.2875C3.63796 13.4342 3.04971 13.0068 3.00367 12.3906L2.93467 11.4669C2.90644 11.0891 2.66709 10.7596 2.31646 10.616L1.45932 10.265C0.887531 10.0308 0.662838 9.33926 0.98777 8.81371L1.47486 8.02588C1.67412 7.7036 1.67412 7.2964 1.47486 6.97412L0.98777 6.18629C0.662838 5.66074 0.88753 4.96921 1.45932 4.73502L2.31646 4.38396C2.66709 4.24035 2.90644 3.91091 2.93467 3.53307L3.00367 2.60939C3.04971 1.99323 3.63796 1.56583 4.2382 1.71246L5.13799 1.93226C5.50606 2.02217 5.89334 1.89634 6.13827 1.60725L6.73702 0.900543Z" fill="url(#paint1_linear_1507_652)"/>
<path d="M7.11851 1.22376C7.31822 0.988039 7.68178 0.988039 7.88149 1.22376L8.48024 1.93046C8.84763 2.3641 9.42855 2.55285 9.98066 2.41798L10.8805 2.19818C11.1806 2.12487 11.4747 2.33856 11.4977 2.64664L11.5667 3.57032C11.6091 4.13709 11.9681 4.63124 12.494 4.84665L13.3512 5.19772C13.6371 5.31481 13.7494 5.66058 13.587 5.92335L13.0999 6.71118C12.801 7.19459 12.801 7.80541 13.0999 8.28882L13.587 9.07665C13.7494 9.33942 13.6371 9.68519 13.3512 9.80228L12.494 10.1533C11.9681 10.3688 11.6091 10.8629 11.5667 11.4297L11.4977 12.3534C11.4747 12.6614 11.1806 12.8751 10.8805 12.8018L9.98066 12.582C9.42855 12.4472 8.84763 12.6359 8.48024 13.0695L7.88149 13.7762C7.68178 14.012 7.31822 14.012 7.11851 13.7762L6.51976 13.0695C6.15237 12.6359 5.57145 12.4472 5.01934 12.582L4.11955 12.8018C3.81943 12.8751 3.5253 12.6614 3.50229 12.3534L3.43328 11.4297C3.39093 10.8629 3.03191 10.3688 2.50597 10.1533L1.64882 9.80228C1.36293 9.68519 1.25058 9.33942 1.41305 9.07665L1.90014 8.28882C2.19902 7.80541 2.19902 7.19459 1.90014 6.71118L1.41305 5.92335C1.25058 5.66058 1.36293 5.31481 1.64882 5.19772L2.50597 4.84665L2.31646 4.38396L2.50597 4.84665C3.03191 4.63124 3.39093 4.13709 3.43328 3.57032L3.50229 2.64665C3.5253 2.33856 3.81943 2.12487 4.11955 2.19818L5.01934 2.41798C5.57145 2.55285 6.15237 2.3641 6.51976 1.93046L7.11851 1.22376Z" stroke="url(#paint2_linear_1507_652)" stroke-opacity="0.2"/>
<path d="M10 6.25L6.99219 8.75L5.625 7.61364" stroke="white" stroke-linecap="round" stroke-linejoin="round"/>
<defs>
<radialGradient id="paint0_radial_1507_652" cx="0" cy="0" r="1" gradientUnits="userSpaceOnUse" gradientTransform="translate(5.35061 7.5) rotate(75.8524) scale(11.4132 11.0184)">
<stop stop-color="#171B20"/>
<stop offset="1" stop-color="#1F2326"/>
</radialGradient>
<linearGradient id="paint1_linear_1507_652" x1="-0.52261" y1="0.364301" x2="16.8163" y2="0.954711" gradientUnits="userSpaceOnUse">
<stop stop-color="#7EB4C2"/>
<stop offset="0.377531" stop-color="#7ABFD1"/>
<stop offset="1" stop-color="#64A6B8"/>
</linearGradient>
<linearGradient id="paint2_linear_1507_652" x1="17.5403" y1="-1.01379e-06" x2="4.35484" y2="16.0887" gradientUnits="userSpaceOnUse">
<stop offset="0.0149742" stop-color="white"/>
<stop offset="1" stop-color="white" stop-opacity="0"/>
</linearGradient>
</defs>
</svg>
