<svg width="26" height="31" viewBox="0 0 26 31" fill="none" xmlns="http://www.w3.org/2000/svg">
<path d="M14.9688 30.125L14.4766 29.3516C14.8047 28.0859 15.1914 26.7383 15.6367 25.3086C16.1055 23.8789 16.6094 22.4375 17.1484 20.9844C17.6875 19.5313 18.2617 18.0898 18.8711 16.6602C19.4805 15.207 20.0781 13.8242 20.6641 12.5117H25.4805C25.1289 13.9414 24.7773 15.4297 24.4258 16.9766C24.0977 18.5234 23.7812 20.0703 23.4766 21.6172C23.1719 23.1406 22.8906 24.6289 22.6328 26.082C22.375 27.5352 22.1523 28.8828 21.9648 30.125H14.9688ZM1.43359 30.125L0.941406 29.3516C1.26953 28.0859 1.65625 26.7383 2.10156 25.3086C2.57031 23.8789 3.07422 22.4375 3.61328 20.9844C4.15234 19.5313 4.72656 18.0898 5.33594 16.6602C5.94531 15.207 6.54297 13.8242 7.12891 12.5117H11.9453C11.5938 13.9414 11.2422 15.4297 10.8906 16.9766C10.5625 18.5234 10.2461 20.0703 9.94141 21.6172C9.63672 23.1406 9.35547 24.6289 9.09766 26.082C8.83984 27.5352 8.61719 28.8828 8.42969 30.125H1.43359Z" fill="#FFE81A"/>
</svg>
