<svg width="76" height="89" viewBox="0 0 76 89" fill="none" xmlns="http://www.w3.org/2000/svg">
<path d="M0 0H76V83.2635C76 86.0465 73.2286 87.979 70.6172 87.0169L38 75L5.38282 87.0169C2.7714 87.979 0 86.0465 0 83.2635V0Z" fill="url(#paint0_linear_1577_466)"/>
<path d="M23.0238 48.01V31.043C23.0238 26.014 25.5148 22.771 30.5438 22.771C35.6198 22.771 38.1108 26.014 38.1108 31.043V48.01C38.1108 53.039 35.6198 56.329 30.5438 56.329C25.5148 56.329 23.0238 53.039 23.0238 48.01ZM26.6428 30.855V48.245C26.6428 51.206 27.9118 52.992 30.5438 52.992C33.2228 52.992 34.4448 51.206 34.4448 48.245V30.855C34.4448 27.847 33.2228 26.061 30.5438 26.061C27.9118 26.061 26.6428 27.847 26.6428 30.855ZM48.2944 56V29.069C47.0724 29.821 45.4744 30.385 43.7354 30.479V27.471C47.3074 27.33 48.5294 25.403 49.3754 23.1H51.9134V56H48.2944Z" fill="white"/>
<defs>
<linearGradient id="paint0_linear_1577_466" x1="11" y1="84" x2="92.2793" y2="5.46363" gradientUnits="userSpaceOnUse">
<stop stop-color="#2F748B"/>
<stop offset="1" stop-color="#4EAFC6"/>
</linearGradient>
</defs>
</svg>
