<svg width="76" height="89" viewBox="0 0 76 89" fill="none" xmlns="http://www.w3.org/2000/svg">
<path d="M0 0H76V83.2635C76 86.0465 73.2286 87.979 70.6172 87.0169L38 75L5.38282 87.0169C2.7714 87.979 0 86.0465 0 83.2635V0Z" fill="url(#paint0_linear_1577_498)"/>
<path d="M21.8763 48.01V31.043C21.8763 26.014 24.3673 22.771 29.3963 22.771C34.4723 22.771 36.9633 26.014 36.9633 31.043V48.01C36.9633 53.039 34.4723 56.329 29.3963 56.329C24.3673 56.329 21.8763 53.039 21.8763 48.01ZM25.4953 30.855V48.245C25.4953 51.206 26.7643 52.992 29.3963 52.992C32.0753 52.992 33.2973 51.206 33.2973 48.245V30.855C33.2973 27.847 32.0753 26.061 29.3963 26.061C26.7643 26.061 25.4953 27.847 25.4953 30.855ZM44.6089 26.39L44.0919 36.495C45.1259 34.709 46.7709 33.769 48.9799 33.769C53.2099 33.769 55.0899 36.871 55.0899 41.571V48.01C55.0899 53.039 52.6929 56.329 47.6639 56.329C42.6349 56.329 40.2849 53.039 40.2849 48.01V45.801H43.7159V48.245C43.7159 51.206 44.9379 52.992 47.5699 52.992C50.2019 52.992 51.4239 51.206 51.4239 48.245V41.853C51.4239 38.892 50.2019 37.106 47.5699 37.106C45.5489 37.106 44.1859 38.234 43.8569 40.631V41.383H40.4259L41.3189 23.1H54.2909V26.39H44.6089Z" fill="white"/>
<defs>
<linearGradient id="paint0_linear_1577_498" x1="11" y1="84" x2="92.2793" y2="5.46363" gradientUnits="userSpaceOnUse">
<stop stop-color="#2F748B"/>
<stop offset="1" stop-color="#4EAFC6"/>
</linearGradient>
</defs>
</svg>
