<svg width="76" height="89" viewBox="0 0 76 89" fill="none" xmlns="http://www.w3.org/2000/svg">
<path d="M0 0H76V83.2635C76 86.0465 73.2286 87.979 70.6172 87.0169L38 75L5.38282 87.0169C2.7714 87.979 0 86.0465 0 83.2635V0Z" fill="url(#paint0_linear_1577_474)"/>
<path d="M21.8763 48.01V31.043C21.8763 26.014 24.3673 22.771 29.3963 22.771C34.4723 22.771 36.9633 26.014 36.9633 31.043V48.01C36.9633 53.039 34.4723 56.329 29.3963 56.329C24.3673 56.329 21.8763 53.039 21.8763 48.01ZM25.4953 30.855V48.245C25.4953 51.206 26.7643 52.992 29.3963 52.992C32.0753 52.992 33.2973 51.206 33.2973 48.245V30.855C33.2973 27.847 32.0753 26.061 29.3963 26.061C26.7643 26.061 25.4953 27.847 25.4953 30.855ZM47.8049 22.771C52.9279 22.771 55.2309 26.061 55.2309 31.09C55.2309 41.007 44.0919 44.579 44.0449 52.146V52.663H54.8549V56H40.4259V53.18C40.4259 42.558 51.5649 40.49 51.5649 31.231C51.5649 27.847 50.4369 26.061 47.7109 26.061C45.0319 26.061 43.8569 27.988 43.8569 30.902V33.816H40.4259V31.137C40.4259 26.108 42.7289 22.771 47.8049 22.771Z" fill="white"/>
<defs>
<linearGradient id="paint0_linear_1577_474" x1="11" y1="84" x2="92.2793" y2="5.46363" gradientUnits="userSpaceOnUse">
<stop stop-color="#2F748B"/>
<stop offset="1" stop-color="#4EAFC6"/>
</linearGradient>
</defs>
</svg>
