<svg width="76" height="89" viewBox="0 0 76 89" fill="none" xmlns="http://www.w3.org/2000/svg">
<path d="M0 0H76V83.2635C76 86.0465 73.2286 87.979 70.6172 87.0169L38 75L5.38282 87.0169C2.7714 87.979 0 86.0465 0 83.2635V0Z" fill="url(#paint0_linear_1577_482)"/>
<path d="M21.055 48.01V31.043C21.055 26.014 23.546 22.771 28.575 22.771C33.651 22.771 36.142 26.014 36.142 31.043V48.01C36.142 53.039 33.651 56.329 28.575 56.329C23.546 56.329 21.055 53.039 21.055 48.01ZM24.674 30.855V48.245C24.674 51.206 25.943 52.992 28.575 52.992C31.254 52.992 32.476 51.206 32.476 48.245V30.855C32.476 27.847 31.254 26.061 28.575 26.061C25.943 26.061 24.674 27.847 24.674 30.855ZM55.5846 49.373H52.9526V56H49.3806V49.373H38.7586V46.036L48.9576 23.1H52.9526V46.036H55.5846V49.373ZM49.3806 29.962L42.1426 46.036H49.3806V29.962Z" fill="white"/>
<defs>
<linearGradient id="paint0_linear_1577_482" x1="11" y1="84" x2="92.2793" y2="5.46363" gradientUnits="userSpaceOnUse">
<stop stop-color="#2F748B"/>
<stop offset="1" stop-color="#4EAFC6"/>
</linearGradient>
</defs>
</svg>
