<svg width="76" height="89" viewBox="0 0 76 89" fill="none" xmlns="http://www.w3.org/2000/svg">
<path d="M0 0H76V83.2635C76 86.0465 73.2286 87.979 70.6172 87.0169L38 75L5.38282 87.0169C2.7714 87.979 0 86.0465 0 83.2635V0Z" fill="url(#paint0_linear_1577_490)"/>
<path d="M21.8763 48.01V31.043C21.8763 26.014 24.3673 22.771 29.3963 22.771C34.4723 22.771 36.9633 26.014 36.9633 31.043V48.01C36.9633 53.039 34.4723 56.329 29.3963 56.329C24.3673 56.329 21.8763 53.039 21.8763 48.01ZM25.4953 30.855V48.245C25.4953 51.206 26.7643 52.992 29.3963 52.992C32.0753 52.992 33.2973 51.206 33.2973 48.245V30.855C33.2973 27.847 32.0753 26.061 29.3963 26.061C26.7643 26.061 25.4953 27.847 25.4953 30.855ZM47.6169 22.771C52.6929 22.771 55.0429 26.014 55.0429 31.043V31.889C55.0429 35.273 53.6799 37.67 51.0479 38.657C53.8209 39.691 55.0429 42.182 55.0429 45.472V48.01C55.0429 53.039 52.6929 56.329 47.6169 56.329C42.5879 56.329 40.2379 53.039 40.2379 48.01V45.754H43.6689V48.245C43.6689 51.206 44.8909 52.992 47.5229 52.992C50.2019 52.992 51.3769 51.253 51.3769 47.916V45.378C51.3769 42.135 50.0139 40.584 47.2409 40.49H45.2669V37.2H47.4289C49.8729 37.106 51.3769 35.555 51.3769 32.688V31.184C51.3769 27.8 50.2019 26.061 47.5229 26.061C44.8909 26.061 43.6689 27.894 43.6689 30.855V32.547H40.2379V31.043C40.2379 26.014 42.5879 22.771 47.6169 22.771Z" fill="white"/>
<defs>
<linearGradient id="paint0_linear_1577_490" x1="11" y1="84" x2="92.2793" y2="5.46363" gradientUnits="userSpaceOnUse">
<stop stop-color="#2F748B"/>
<stop offset="1" stop-color="#4EAFC6"/>
</linearGradient>
</defs>
</svg>
