<svg width="201" height="11" viewBox="0 0 201 11" fill="none" xmlns="http://www.w3.org/2000/svg">
<path fill-rule="evenodd" clip-rule="evenodd" d="M199.079 2.63793C199.079 2.63799 199.077 2.63742 199.075 2.63603C199.077 2.63718 199.079 2.63788 199.079 2.63793ZM132.672 4.41942C134.294 4.33 135.915 4.24227 137.537 4.15664C137.564 4.15521 137.867 4.13856 138.407 4.10886C144.994 3.74669 186.862 1.44479 193.935 1.16219C194.337 1.14614 194.944 1.04083 195.635 0.90822C195.786 0.879279 195.94 0.84915 196.096 0.81871C196.64 0.712502 197.204 0.602519 197.705 0.5261C198.32 0.432343 198.942 0.369436 199.322 0.485319C199.42 0.51511 199.563 0.57278 199.695 0.711354C199.839 0.862091 200.052 1.21063 200.039 1.79553C200.028 2.26971 199.867 2.59658 199.789 2.7375C199.695 2.90798 199.581 3.05497 199.469 3.18132C198.439 4.34841 197.265 4.52467 196.184 4.48888C195.769 4.47514 195.345 4.42808 194.938 4.38296C194.814 4.36925 194.692 4.35572 194.572 4.34336C194.047 4.2891 193.554 4.25533 193.088 4.30263C187.339 4.88601 181.587 5.3822 175.834 5.73047C168.78 6.15757 159.914 6.41125 149.937 6.53289C149.933 6.56954 149.929 6.60521 149.924 6.63976C149.84 7.20235 149.683 7.69355 149.448 8.08085C149.215 8.46292 148.94 8.68881 148.664 8.81678C148.136 9.06199 147.527 8.98288 146.972 8.83713C146.543 8.72441 146.082 8.5519 145.649 8.38939C145.513 8.33828 145.379 8.28816 145.25 8.24121C144.685 8.03587 144.2 7.88906 143.815 7.88508C139.601 7.84139 128.853 7.48017 123.573 7.30275C122.722 7.27414 122.013 7.25031 121.496 7.23336C118.711 7.3964 115.925 7.56159 113.138 7.72681C82.5373 9.54099 51.8763 11.3588 21.3268 10.3695C20.9788 10.3582 20.7124 9.86167 20.7319 9.26041C20.7513 8.65914 21.0493 8.18085 21.3973 8.19212C46.1748 8.99448 71.0215 7.94839 95.8697 6.55555C79.6948 6.22505 63.5201 6.07776 47.3278 6.10732C46.9974 6.10792 46.7355 5.66982 46.7201 5.11153C28.9008 4.58803 14.2684 4.04968 6.56922 3.71765C4.43282 3.62551 2.82873 3.5492 1.83817 3.49345C1.34497 3.46569 0.997573 3.44269 0.812417 3.42501C0.766288 3.4206 0.724797 3.41603 0.691631 3.41112C0.676031 3.40882 0.654673 3.40535 0.632642 3.40014C0.620746 3.39722 0.595572 3.38985 0.579691 3.3843C0.551424 3.37286 0.459034 3.31785 0.396594 3.26311C0.18798 2.91311 0.174113 1.83015 0.424946 1.38067C0.50206 1.31376 0.613901 1.25176 0.646137 1.24069C0.687386 1.22819 0.72437 1.22424 0.735714 1.22302L0.736592 1.22293C0.770153 1.21932 0.811284 1.21743 0.852611 1.21618C1.50773 1.19644 4.94139 1.2793 11.7662 1.5003C15.5023 1.62129 19.2383 1.74347 22.9742 1.86565C46.7287 2.64252 70.4805 3.4193 94.2418 3.88755C107.54 4.14961 111.298 4.18294 116.461 4.22875C119.984 4.26 124.16 4.29705 132.465 4.41646C132.534 4.41745 132.603 4.41844 132.672 4.41942Z" fill="#FEE92D"/>
</svg>
